<svg width="107" height="49" viewBox="0 0 107 49" fill="none" xmlns="http://www.w3.org/2000/svg">
<g clip-path="url(#clip0_1_17)">
<path d="M39.5747 46.4138C37.0979 48.1083 34.1699 49.0098 31.1749 49C27.3872 49.0203 23.7288 47.6147 20.9184 45.0594C20.6995 44.8636 20.9184 44.6026 21.1454 44.7494C23.8708 46.3295 26.9224 47.2541 30.0617 47.4508C33.2011 47.6475 36.3431 47.1111 39.2423 45.8834C39.6314 45.7203 39.9476 46.1364 39.5747 46.4138Z" fill="black"/>
<path d="M40.5233 45.3287C40.2314 44.9534 38.6017 45.1492 37.8639 45.2389C37.645 45.2389 37.6126 45.0758 37.8071 44.9289C39.1125 44.0151 41.2449 44.2762 41.4881 44.5862C41.7314 44.8963 41.4233 47.0338 40.2071 48.0699C40.0206 48.2249 39.8422 48.1434 39.9233 47.9394C40.199 47.2459 40.8071 45.704 40.5233 45.3287ZM37.9207 38.4429V37.5455C37.9195 37.5151 37.9246 37.4849 37.9356 37.4567C37.9466 37.4285 37.9633 37.4028 37.9846 37.3814C38.0059 37.3599 38.0314 37.3431 38.0595 37.3321C38.0875 37.321 38.1176 37.3159 38.1477 37.317H42.1043C42.1345 37.3159 42.1645 37.321 42.1925 37.3321C42.2206 37.3431 42.2461 37.3599 42.2674 37.3814C42.2887 37.4028 42.3054 37.4285 42.3164 37.4567C42.3274 37.4849 42.3325 37.5151 42.3314 37.5455V38.3124C42.3314 38.4429 42.226 38.6061 42.0314 38.8753L39.972 41.8368C40.7587 41.7906 41.5433 41.9598 42.2422 42.3263C42.3038 42.3602 42.3556 42.4096 42.3926 42.4696C42.4295 42.5297 42.4503 42.5984 42.453 42.669V43.6235C42.453 43.7541 42.307 43.9091 42.1611 43.8275C41.512 43.4898 40.7919 43.3136 40.0611 43.3136C39.3304 43.3136 38.6103 43.4898 37.9612 43.8275C37.8234 43.9009 37.6774 43.7541 37.6774 43.6235V42.7424C37.6634 42.5283 37.7143 42.3149 37.8234 42.1305L40.2233 38.6632H38.1477C38.1183 38.6643 38.0889 38.6594 38.0614 38.6488C38.0339 38.6382 38.0088 38.6222 37.9876 38.6016C37.9664 38.581 37.9496 38.5564 37.9381 38.5291C37.9266 38.5018 37.9206 38.4725 37.9207 38.4429ZM45.7853 38.4837C44.8935 38.4837 44.8367 39.7075 44.8367 40.4662C44.8367 41.2249 44.8367 42.8566 45.7772 42.8566C46.7177 42.8566 46.7583 41.5431 46.7583 40.7436C46.776 40.1934 46.7131 39.6436 46.5718 39.1119C46.5346 38.9283 46.4312 38.765 46.2815 38.6535C46.1318 38.5421 45.9464 38.4903 45.761 38.5082L45.7853 38.4837ZM45.7853 37.2028C47.5772 37.2028 48.5501 38.7611 48.5501 40.7273C48.5501 42.6935 47.4799 44.1457 45.7853 44.1457C44.0908 44.1457 43.0611 42.5956 43.0611 40.662C43.0611 38.7284 44.034 37.2028 45.7853 37.2028ZM35.9667 43.9988C35.9241 44.0256 35.8749 44.0398 35.8248 44.0398C35.7746 44.0398 35.7254 44.0256 35.6829 43.9988C35.4072 43.7676 35.1716 43.4919 34.9856 43.183C34.7479 43.4808 34.4428 43.7169 34.0958 43.8716C33.7487 44.0263 33.3699 44.0951 32.9911 44.0723C32.7429 44.0865 32.4946 44.0464 32.2633 43.9548C32.032 43.8631 31.8232 43.7221 31.6513 43.5414C31.4795 43.3607 31.3486 43.1446 31.2677 42.9081C31.1869 42.6715 31.158 42.4202 31.183 42.1713C31.1702 41.7468 31.2869 41.3285 31.5174 40.9726C31.7478 40.6167 32.081 40.3404 32.4721 40.1807C33.2086 39.9357 33.9755 39.7956 34.7505 39.7646C34.7869 39.4097 34.7368 39.0513 34.6045 38.7203C34.5219 38.6193 34.4179 38.5383 34.3 38.4832C34.1821 38.4281 34.0534 38.4004 33.9235 38.4021C33.703 38.3863 33.4842 38.4499 33.306 38.5814C33.1278 38.7129 33.0018 38.9038 32.9505 39.12C32.9505 39.2587 32.8289 39.3648 32.7235 39.3566L31.5641 39.2669C31.5351 39.262 31.5074 39.2513 31.4826 39.2354C31.4578 39.2195 31.4365 39.1988 31.4198 39.1744C31.4032 39.1501 31.3916 39.1226 31.3857 39.0936C31.3799 39.0647 31.3798 39.0348 31.3857 39.0058C31.6532 37.5781 32.9424 37.1457 34.0937 37.1457C34.754 37.1211 35.4011 37.3353 35.918 37.7494C36.5018 38.3042 36.445 39.0466 36.445 39.8461V41.7471C36.4489 42.1683 36.6145 42.5718 36.9072 42.873C36.9483 42.9156 36.9713 42.9727 36.9713 43.0321C36.9713 43.0915 36.9483 43.1485 36.9072 43.1911L35.9748 44.007L35.9667 43.9988ZM34.7505 41.0291C34.794 41.4743 34.7155 41.9229 34.5234 42.3263C34.4479 42.4817 34.3334 42.6146 34.1912 42.7119C34.049 42.8092 33.8841 42.8675 33.7127 42.8811C33.2424 42.8811 32.9748 42.5221 32.9748 41.9918C32.9748 40.9557 33.8991 40.7681 34.7748 40.7681V41.0291H34.7505ZM20.1076 43.9988C20.0651 44.0256 20.0159 44.0398 19.9657 44.0398C19.9155 44.0398 19.8664 44.0256 19.8238 43.9988C19.5481 43.7676 19.3125 43.4919 19.1265 43.183C18.8858 43.4772 18.5802 43.7109 18.2339 43.8652C17.8876 44.0196 17.5103 44.0905 17.132 44.0723C16.8888 44.0823 16.6462 44.0403 16.4204 43.9489C16.1946 43.8576 15.9906 43.719 15.8219 43.5424C15.6533 43.3657 15.5239 43.1551 15.4422 42.9244C15.3606 42.6936 15.3285 42.4481 15.3483 42.204C15.3343 41.7792 15.4505 41.3603 15.6811 41.0042C15.9117 40.6482 16.2456 40.372 16.6374 40.2133C17.3738 39.9683 18.1407 39.8282 18.9157 39.7972C18.9523 39.4416 18.8993 39.0825 18.7617 38.7529C18.6829 38.6497 18.5807 38.567 18.4636 38.5116C18.3465 38.4563 18.218 38.4299 18.0887 38.4347C17.868 38.4173 17.6483 38.4802 17.4698 38.6119C17.2912 38.7437 17.1656 38.9356 17.1158 39.1527C17.1158 39.2914 16.9942 39.3974 16.8888 39.3893L15.7293 39.2669C15.7004 39.262 15.6727 39.2513 15.6479 39.2354C15.6231 39.2195 15.6017 39.1988 15.5851 39.1744C15.5685 39.1501 15.5569 39.1226 15.551 39.0936C15.5451 39.0647 15.5451 39.0348 15.551 39.0058C15.8185 37.5781 17.1077 37.1457 18.259 37.1457C18.9169 37.1202 19.5618 37.3346 20.0752 37.7494C20.667 38.3042 20.6103 39.0466 20.6103 39.8461V41.7471C20.6065 42.1607 20.7536 42.5613 21.0238 42.873C21.0451 42.8935 21.0621 42.9182 21.0737 42.9456C21.0853 42.9729 21.0913 43.0023 21.0913 43.0321C21.0913 43.0618 21.0853 43.0912 21.0737 43.1185C21.0621 43.1459 21.0451 43.1706 21.0238 43.1911L20.0914 44.007L20.1076 43.9988ZM18.8914 41.0291C18.935 41.4743 18.8564 41.9229 18.6644 42.3263C18.5882 42.4812 18.4735 42.6137 18.3314 42.7109C18.1894 42.8081 18.0248 42.8667 17.8536 42.8811C17.3914 42.8811 17.1239 42.5221 17.1239 41.9918C17.1239 40.9557 18.0482 40.7681 18.9238 40.7681V41.0291H18.8914ZM23.6426 40.4825C23.6426 39.7564 23.6426 38.7611 24.4534 38.7611C25.2642 38.7611 25.1913 39.7809 25.1913 40.4825V43.7949C25.1912 43.8519 25.2132 43.9067 25.2525 43.9478C25.2918 43.9889 25.3454 44.013 25.4021 44.0151H26.6101C26.64 44.0162 26.6697 44.0114 26.6977 44.0009C26.7256 43.9904 26.7512 43.9745 26.7731 43.9541C26.7949 43.9336 26.8125 43.909 26.8249 43.8817C26.8373 43.8544 26.8442 43.8249 26.8453 43.7949V40.4825C26.8207 40.0792 26.859 39.6746 26.9588 39.2832C27.0167 39.1365 27.1157 39.0098 27.2438 38.9185C27.3719 38.8273 27.5236 38.7754 27.6804 38.7692C27.8459 38.7459 28.0138 38.7895 28.1475 38.8904C28.2812 38.9912 28.3698 39.1413 28.3939 39.3077C28.4224 39.6988 28.4224 40.0914 28.3939 40.4825V43.7949C28.3959 43.8526 28.4196 43.9075 28.4602 43.9484C28.5009 43.9893 28.5554 44.0131 28.6128 44.0151H29.8209C29.8507 44.0162 29.8804 44.0114 29.9084 44.0009C29.9363 43.9904 29.962 43.9745 29.9838 43.9541C30.0056 43.9336 30.0233 43.909 30.0356 43.8817C30.048 43.8544 30.0549 43.8249 30.056 43.7949V39.8461C30.1576 39.1771 30.0499 38.4929 29.7479 37.8881C29.5856 37.6714 29.3746 37.4963 29.1323 37.3772C28.8899 37.2581 28.623 37.1983 28.3533 37.2028C27.9877 37.1922 27.6282 37.2986 27.3265 37.5068C27.0249 37.715 26.7968 38.0142 26.675 38.3613C26.5735 38.0241 26.3661 37.729 26.0841 37.5202C25.802 37.3113 25.4603 37.2 25.1102 37.2028C24.7504 37.1873 24.3958 37.2928 24.1022 37.5025C23.8086 37.7123 23.5927 38.0144 23.4886 38.3613V37.5455C23.4865 37.4863 23.4616 37.4303 23.4193 37.3892C23.3769 37.3481 23.3204 37.3251 23.2616 37.3252H22.2157C22.1862 37.3241 22.1569 37.329 22.1294 37.3395C22.1019 37.3501 22.0768 37.3662 22.0556 37.3867C22.0344 37.4073 22.0175 37.432 22.006 37.4592C21.9945 37.4865 21.9886 37.5158 21.9886 37.5455V43.7704C21.9875 43.8007 21.9926 43.8309 22.0036 43.8591C22.0146 43.8874 22.0313 43.913 22.0526 43.9345C22.0739 43.9559 22.0994 43.9727 22.1274 43.9838C22.1555 43.9949 22.1855 44 22.2157 43.9988H23.4562C23.4856 43.9989 23.5147 43.9929 23.5419 43.9813C23.569 43.9697 23.5935 43.9528 23.6139 43.9315C23.6343 43.9101 23.6503 43.8849 23.6608 43.8572C23.6713 43.8295 23.6762 43.8 23.6751 43.7704V40.507L23.6426 40.4825ZM51.1041 43.7867C51.1052 43.817 51.1002 43.8472 51.0891 43.8755C51.0781 43.9037 51.0615 43.9293 51.0401 43.9508C51.0188 43.9722 50.9934 43.989 50.9653 44.0001C50.9372 44.0112 50.9072 44.0163 50.8771 44.0151H49.669C49.6088 44.0151 49.5511 43.9911 49.5085 43.9482C49.4659 43.9054 49.442 43.8473 49.442 43.7867V37.5618C49.4441 37.5026 49.4689 37.4466 49.5113 37.4055C49.5536 37.3644 49.6102 37.3415 49.669 37.3415H50.7879C50.8398 37.3383 50.8911 37.3537 50.9327 37.3851C50.9743 37.4165 51.0035 37.4618 51.0149 37.5128V38.4674C51.0989 38.1008 51.3062 37.7747 51.6017 37.5442C51.8972 37.3138 52.2628 37.1932 52.6365 37.2028C52.9153 37.194 53.1915 37.2577 53.4387 37.3878C53.6858 37.5179 53.8954 37.7098 54.0473 37.9452C54.3135 38.5553 54.4222 39.2232 54.3635 39.8869V43.8193C54.3574 43.8749 54.3305 43.926 54.2884 43.9623C54.2462 43.9987 54.1919 44.0176 54.1365 44.0151H52.9689C52.9163 44.0135 52.8659 43.9928 52.8272 43.9568C52.7885 43.9209 52.764 43.872 52.7581 43.8193V40.042C52.7581 38.7774 52.2716 38.7448 51.996 38.7448C51.8461 38.7534 51.7016 38.8037 51.5785 38.8902C51.4553 38.9766 51.3585 39.0957 51.2987 39.2343C51.149 39.6125 51.0826 40.0189 51.1041 40.4254V43.7867Z" fill="black"/>
<path d="M3.9972 43.9988L3.8999 43.3625C3.61502 43.6117 3.28831 43.8078 2.93506 43.9417C2.60272 44.0778 2.24791 44.1497 1.88914 44.1538C1.63804 44.1674 1.38678 44.1303 1.1501 44.0449C0.913413 43.9594 0.696066 43.8273 0.510798 43.6562C0.335367 43.4861 0.19826 43.28 0.108741 43.052C0.0192217 42.824 -0.020625 42.5793 -0.00810836 42.3345C-0.018326 42.0637 0.0333807 41.7941 0.143026 41.5466C0.25267 41.2991 0.417327 41.0802 0.624309 40.9068C1.10933 40.5344 1.70953 40.3466 2.31886 40.3765C2.83633 40.3842 3.35093 40.4554 3.85125 40.5886V39.7727C3.8695 39.6052 3.85219 39.4356 3.80048 39.2753C3.74876 39.115 3.66382 38.9675 3.55126 38.8427C3.2566 38.6332 2.89679 38.5376 2.53777 38.5734C1.81089 38.5826 1.09046 38.7122 0.405395 38.9569V38.1084C0.742697 37.9365 1.10331 37.8156 1.47564 37.7494C1.89425 37.6612 2.32089 37.6175 2.74858 37.6189C3.35263 37.5685 3.95444 37.7394 4.44313 38.1002C4.6363 38.2894 4.78581 38.519 4.88108 38.7728C4.97635 39.0266 5.01506 39.2983 4.99447 39.5688V43.9988H3.9972ZM2.17292 43.2401C2.78474 43.2167 3.37299 42.9965 3.85125 42.6119V41.3718C3.42981 41.2644 2.99684 41.2096 2.5621 41.2086C1.65401 41.2086 1.19186 41.5676 1.19186 42.2692C1.18365 42.4004 1.20245 42.5319 1.2471 42.6555C1.29174 42.779 1.36127 42.8919 1.45132 42.9872C1.55015 43.076 1.66558 43.1441 1.79087 43.1875C1.91616 43.231 2.0488 43.2488 2.18103 43.2401H2.17292ZM10.9538 43.9988V39.8543C10.9815 39.5141 10.8866 39.1752 10.6862 38.8998C10.5816 38.7924 10.4546 38.7097 10.3144 38.6575C10.1742 38.6053 10.0243 38.5849 9.87543 38.5979C9.20047 38.6081 8.54452 38.8243 7.99439 39.2179V43.9988H6.78631V37.7984H7.79169L7.91331 38.4837C8.60683 37.9328 9.46219 37.6287 10.3457 37.6189C10.5903 37.6009 10.8359 37.6336 11.0674 37.715C11.2989 37.7964 11.5114 37.9247 11.6916 38.0921C11.8586 38.2793 11.9857 38.4989 12.0652 38.7375C12.1447 38.976 12.1748 39.2283 12.1537 39.479V44.0315L10.9538 43.9988ZM62.22 43.7622C61.7167 44.0141 61.1605 44.14 60.5985 44.1294C60.1971 44.1558 59.7947 44.0968 59.4175 43.9562C59.0403 43.8157 58.6968 43.5967 58.4093 43.3135C57.9076 42.6172 57.6374 41.7791 57.6374 40.919C57.6374 40.0589 57.9076 39.2208 58.4093 38.5245C58.7005 38.2394 59.0481 38.0194 59.4295 37.8788C59.8109 37.7382 60.2176 37.6802 60.6228 37.7086C61.1527 37.7056 61.6764 37.8227 62.1552 38.0513V38.9161C61.722 38.7633 61.2681 38.678 60.8093 38.6632C60.5416 38.6376 60.2717 38.6711 60.0182 38.7612C59.7648 38.8514 59.5339 38.9961 59.3417 39.1853C59.005 39.6586 58.8469 40.2371 58.8958 40.817V40.972C58.8492 41.553 59.0102 42.1316 59.3498 42.6037C59.5368 42.7908 59.7621 42.9344 60.01 43.0246C60.2579 43.1148 60.5224 43.1494 60.7849 43.1259C61.2728 43.1172 61.7566 43.0347 62.22 42.8811V43.7622ZM65.9983 44.1783C65.5967 44.2013 65.1949 44.1359 64.821 43.9865C64.4471 43.8371 64.1101 43.6075 63.8335 43.3135C63.3224 42.6134 63.0468 41.7673 63.0468 40.8986C63.0468 40.0299 63.3224 39.1838 63.8335 38.4837C64.4176 37.9283 65.1907 37.6188 65.9943 37.6188C66.7979 37.6188 67.571 37.9283 68.155 38.4837C68.6661 39.1838 68.9417 40.0299 68.9417 40.8986C68.9417 41.7673 68.6661 42.6134 68.155 43.3135C67.88 43.6073 67.5444 43.8369 67.1719 43.9863C66.7993 44.1357 66.3987 44.2012 65.9983 44.1783ZM65.9983 43.1993C67.1334 43.1993 67.7091 42.4324 67.7091 40.8904C67.7091 39.3485 67.1334 38.5979 65.9983 38.5979C64.8632 38.5979 64.2876 39.3566 64.2876 40.8904C64.2876 42.4242 64.8551 43.1993 65.9983 43.1993ZM78.2818 43.9988V39.789C78.3061 39.4729 78.2263 39.1576 78.0548 38.8916C77.9643 38.7888 77.8512 38.7087 77.7245 38.6577C77.5978 38.6068 77.461 38.5863 77.3251 38.5979C76.6915 38.6096 76.0738 38.7989 75.5413 39.1445C75.5456 39.207 75.5456 39.2697 75.5413 39.3322V43.9988H74.3414V39.789C74.3621 39.4732 74.2826 39.159 74.1143 38.8916C74.0239 38.7888 73.9108 38.7087 73.7841 38.6577C73.6574 38.6068 73.5206 38.5863 73.3846 38.5979C72.7537 38.6024 72.1374 38.7894 71.609 39.1364V44.0315H70.409V37.831H71.4144L71.536 38.4592C72.193 37.9619 72.9848 37.6774 73.8062 37.6434C74.1177 37.607 74.4328 37.6681 74.7085 37.8185C74.9842 37.9689 75.2071 38.2012 75.3467 38.4837C76.0423 37.9366 76.8964 37.6329 77.7791 37.6189C78.0149 37.6024 78.2516 37.6361 78.4737 37.7176C78.6958 37.7991 78.8983 37.9267 79.0683 38.0921C79.3825 38.4814 79.5312 38.9799 79.4818 39.479V44.0315L78.2818 43.9988ZM81.2574 46.5117V37.7984H82.2628L82.3763 38.4347C82.9332 37.9119 83.666 37.6205 84.4276 37.6189C84.7789 37.599 85.13 37.6624 85.4526 37.8042C85.7751 37.9459 86.06 38.1619 86.2843 38.4347C86.7699 39.1143 87.0102 39.9404 86.9654 40.7762C87.0172 41.6519 86.7618 42.5182 86.2438 43.2238C86.0203 43.5159 85.7309 43.7504 85.3996 43.9078C85.0683 44.0653 84.7046 44.1412 84.3384 44.1294C83.6427 44.1437 82.9686 43.8864 82.4574 43.4114V46.5117H81.2574ZM84.0871 38.5979C83.5003 38.6044 82.9314 38.8019 82.4655 39.1608V42.5629C82.9271 42.9328 83.497 43.1393 84.0871 43.1503C85.2059 43.1503 85.7573 42.3916 85.7573 40.8823C85.805 40.2799 85.6632 39.6776 85.3519 39.1608C85.2058 38.9668 85.013 38.8134 84.7918 38.7149C84.5705 38.6164 84.328 38.5761 84.0871 38.5979ZM92.0652 43.9988L91.9679 43.3625C91.6831 43.6117 91.3563 43.8078 91.0031 43.9417C90.6679 44.0777 90.3104 44.1496 89.9491 44.1538C89.698 44.1665 89.447 44.129 89.2105 44.0436C88.9739 43.9582 88.7565 43.8265 88.5707 43.6562C88.398 43.4844 88.2633 43.2779 88.1753 43.0502C88.0872 42.8224 88.0479 42.5786 88.0599 42.3345C88.0487 42.0643 88.0992 41.7952 88.2074 41.5477C88.3156 41.3002 88.4787 41.081 88.6842 40.9068C89.1717 40.5332 89.7749 40.3454 90.3869 40.3765C90.9044 40.3842 91.419 40.4554 91.9193 40.5886V39.7727C91.9355 39.6053 91.9172 39.4363 91.8656 39.2762C91.814 39.1162 91.7302 38.9686 91.6193 38.8427C91.3246 38.6332 90.9648 38.5376 90.6058 38.5734C89.8762 38.5819 89.153 38.7115 88.4653 38.9569V38.1084C88.8026 37.9365 89.1632 37.8156 89.5356 37.7494C89.9542 37.6616 90.3808 37.6179 90.8085 37.6189C91.4149 37.5702 92.0187 37.7409 92.5112 38.1002C92.7029 38.2902 92.8509 38.5201 92.9447 38.7738C93.0386 39.0276 93.076 39.2989 93.0544 39.5688V43.9988H92.0652ZM90.2409 43.2401C90.8528 43.2167 91.441 42.9965 91.9193 42.6119V41.3718C91.4978 41.2644 91.0649 41.2096 90.6301 41.2086C89.7139 41.2086 89.2599 41.5676 89.2599 42.2692C89.2506 42.3998 89.2681 42.531 89.3114 42.6545C89.3546 42.778 89.4226 42.8913 89.5112 42.9872C89.7123 43.1643 89.9742 43.255 90.2409 43.2401ZM99.0056 43.9988V39.8543C99.0315 39.5155 98.9398 39.1782 98.7461 38.8998C98.6415 38.7924 98.5145 38.7097 98.3743 38.6575C98.2342 38.6053 98.0843 38.5849 97.9354 38.5979C97.2604 38.6081 96.6044 38.8243 96.0543 39.2179V43.9988H94.8543V37.7984H95.8597L95.9813 38.4837C96.6746 37.9323 97.5301 37.6281 98.4137 37.6189C98.6595 37.6007 98.9065 37.6333 99.1393 37.7147C99.3722 37.7961 99.586 37.9245 99.7677 38.0921C100.091 38.4656 100.254 38.9524 100.222 39.4464V43.9988H99.0056ZM106.968 37.7984L104.162 45.0839C104.014 45.5449 103.752 45.9605 103.4 46.2914C103.08 46.5449 102.68 46.6751 102.273 46.6585C101.952 46.6607 101.633 46.6026 101.333 46.4872V45.6224C101.558 45.679 101.789 45.7064 102.022 45.704C102.279 45.719 102.534 45.6377 102.735 45.4755C102.954 45.2461 103.113 44.9658 103.197 44.6597L103.433 44.0396L100.951 37.782H102.241L104.016 42.8566L105.727 37.782H106.968V37.7984ZM24.0967 12.7436H3.49451V12.6294C3.56751 11.9003 3.73656 11.1842 3.9972 10.5C4.86866 7.94406 6.61245 5.78179 8.91869 4.39744C10.4784 3.50905 12.2517 3.07144 14.0429 3.13287C15.3902 3.12591 16.726 3.38364 17.9752 3.89161C19.1627 4.36626 20.2496 5.06399 21.1778 5.94755C22.0713 6.80327 22.795 7.82214 23.3102 8.94988C23.8469 10.0983 24.1238 11.3522 24.121 12.6212L24.0967 12.7436ZM14.2294 -5.02914e-08C12.2637 -0.0262437 10.3142 0.359976 8.50519 1.13403C6.80852 1.88115 5.27622 2.95991 3.9972 4.30769C2.71091 5.6768 1.7053 7.2875 1.03781 9.04778C0.331963 10.9522 -0.0198253 12.971 -2.72878e-07 15.0035C-0.0256106 17.0882 0.320394 19.1606 1.0216 21.1224C1.66167 22.8966 2.65489 24.5206 3.94044 25.8951C5.2244 27.2471 6.77698 28.3118 8.49708 29.0198C10.3765 29.7847 12.3887 30.1647 14.4158 30.1375C16.8248 30.1637 19.2121 29.6772 21.4211 28.7098C23.5805 27.706 25.4113 26.1044 26.6993 24.0921L24.1453 21.9301C23.1549 23.5074 21.7524 24.7803 20.0914 25.6096C18.3688 26.5136 16.456 26.9892 14.5131 26.9965C12.6224 27.0733 10.746 26.6365 9.08085 25.7319C7.76614 24.9638 6.62335 23.9305 5.72418 22.697C4.92986 21.611 4.34415 20.3852 3.9972 19.0828C3.71746 18.086 3.55955 17.0586 3.52694 16.0233V15.9091H27.5912V13.3718C27.5792 11.7003 27.2773 10.0438 26.6993 8.47669C26.1327 6.88816 25.2654 5.42526 24.1453 4.169C22.9804 2.88462 21.568 1.85205 19.9941 1.13403C18.176 0.342055 16.2101 -0.0474718 14.2294 -0.00815875V-5.02914e-08ZM55.8878 12.7436H35.2937V12.6294C35.3667 11.9003 35.5358 11.1842 35.7964 10.5C36.1909 9.35357 36.7628 8.277 37.4909 7.31002C38.3742 6.13909 39.4758 5.15257 40.7341 4.40559C42.2927 3.51441 44.0668 3.0766 45.8583 3.14102C47.203 3.13408 48.5361 3.39183 49.7825 3.89977C50.9854 4.3678 52.0868 5.06599 53.0257 5.95571C53.8916 6.81726 54.5876 7.83597 55.077 8.95804C55.6099 10.1078 55.8866 11.3608 55.8878 12.6294V12.7436ZM46.0286 -5.02914e-08C44.0603 -0.0261847 42.1082 0.36001 40.2963 1.13403C38.6057 1.87985 37.0789 2.95579 35.8045 4.29953C34.5155 5.66652 33.5095 7.2778 32.8451 9.03963C32.1317 10.9451 31.777 12.9675 31.7992 15.0035C31.775 17.0874 32.1181 19.1591 32.8127 21.1224C33.4582 22.8958 34.4539 24.5193 35.7396 25.8951C37.0236 27.2471 38.5762 28.3118 40.2963 29.0198C42.1755 29.7854 44.1878 30.1654 46.215 30.1375C48.624 30.1637 51.0113 29.6772 53.2203 28.7098C55.3745 27.7046 57.1997 26.1029 58.4823 24.0921L55.9283 21.9301C54.9298 23.5156 53.5119 24.7897 51.8338 25.6096C50.1112 26.5136 48.1984 26.9892 46.2556 26.9965C44.3648 27.0733 42.4884 26.6365 40.8233 25.7319C39.5086 24.9638 38.3658 23.9305 37.4666 22.697C36.6778 21.611 36.1001 20.3847 35.764 19.0828C35.4842 18.086 35.3263 17.0586 35.2937 16.0233V15.9091H59.3904V13.3718C59.3847 11.7026 59.094 10.0468 58.5309 8.47669C57.9644 6.88816 57.097 5.42526 55.977 4.169C54.8129 2.8872 53.4037 1.85495 51.8338 1.13403C50.0153 0.343757 48.0497 -0.0456962 46.0691 -0.00815875L46.0286 -5.02914e-08ZM91.1085 26.9965C89.4712 27.0181 87.8475 26.6958 86.3411 26.0501C84.9691 25.4506 83.731 24.5794 82.7006 23.4883C81.689 22.3973 80.9108 21.1088 80.4142 19.7028C79.3659 16.7035 79.3659 13.434 80.4142 10.4347C80.9127 9.02719 81.6906 7.73643 82.7006 6.64102C83.7315 5.5526 84.9695 4.68414 86.3411 4.08741C89.3956 2.82532 92.8214 2.82532 95.8759 4.08741C97.2491 4.67259 98.486 5.53921 99.5078 6.63205C100.53 7.72489 101.314 9.01997 101.811 10.4347C102.859 13.434 102.859 16.7035 101.811 19.7028C101.31 21.1087 100.529 22.3969 99.5164 23.4883C98.4874 24.5811 97.249 25.4526 95.8759 26.0501C94.3697 26.6964 92.7458 27.0188 91.1085 26.9965ZM91.1085 -5.02914e-08C89.0442 -0.0129767 86.9966 0.371967 85.0762 1.13403C83.2949 1.82934 81.6788 2.89396 80.3331 4.25874C79.0026 5.62906 77.9554 7.25125 77.2521 9.03147C76.5049 10.9544 76.1332 13.0042 76.1575 15.0688C76.1363 17.1398 76.5135 19.1955 77.2683 21.1224C77.9717 22.9026 79.0188 24.5248 80.3493 25.8951C81.6945 27.2528 83.3037 28.3165 85.0762 29.0198C87.0002 29.7773 89.0507 30.1567 91.1166 30.1375C93.1748 30.1589 95.2177 29.7794 97.1327 29.0198C98.9107 28.3164 100.526 27.2522 101.877 25.8935C103.229 24.5348 104.288 22.9108 104.989 21.1224C106.47 17.2242 106.47 12.9133 104.989 9.01515C104.28 7.23007 103.221 5.6069 101.876 4.24242C100.518 2.89305 98.9013 1.83551 97.1246 1.13403C95.2096 0.374496 93.1667 -0.00505176 91.1085 0.0163158V-5.02914e-08ZM63.566 29.3869H67.0605V13.7552C67.0507 12.3996 67.2392 11.0499 67.6199 9.74942C67.9743 8.55529 68.5645 7.44537 69.355 6.48601C70.1573 5.53359 71.1711 4.78456 72.3144 4.29953C73.6203 3.74701 75.0247 3.46936 76.4413 3.48368V0.220278C72.3873 0.301864 69.1847 1.55827 66.9713 3.94056C63.3308 7.84848 63.566 13.5268 63.566 13.5839V29.3869Z" fill="black"/>
</g>
<defs>
<clipPath id="clip0_1_17">
<rect width="107" height="49" fill="white"/>
</clipPath>
</defs>
</svg>
